<?xml version="1.0" standalone="no"?>
<!DOCTYPE svg PUBLIC "-//W3C//DTD SVG 1.1//EN" "http://www.w3.org/Graphics/SVG/1.1/DTD/svg11.dtd" >
<svg xmlns="http://www.w3.org/2000/svg" xmlns:xlink="http://www.w3.org/1999/xlink" version="1.1">
<metadata></metadata>
<defs>
<font id="lft_eticalight" horiz-adv-x="1024" >
<font-face units-per-em="2048" ascent="1495" descent="-553" />
<missing-glyph horiz-adv-x="409" />
<glyph unicode="&#xfb01;" horiz-adv-x="985" d="M63 973v76l121 20v166q0 118 53.5 191t170.5 73q61 0 116 -14v-94q-37 12 -94 12q-129 0 -129 -162v-168h520v-1073h-116v973h-404v-973h-117v973h-121zM678 1370q0 37 24.5 60.5t61.5 23.5t60.5 -23.5t23.5 -60.5t-23.5 -60.5t-60.5 -23.5t-61.5 23.5t-24.5 60.5z" />
<glyph unicode="&#xfb02;" horiz-adv-x="972" d="M63 973v76l121 20v166q0 118 53.5 191t170.5 73q61 0 116 -14v-94q-37 12 -94 12q-129 0 -129 -162v-168h404v402h116v-1475h-116v973h-404v-973h-117v973h-121z" />
<glyph unicode="&#xfb03;" horiz-adv-x="1505" d="M63 973v76l121 20v143q0 117 54.5 191t171.5 74q60 0 125 -19l-9 -92q-47 14 -96 14q-129 0 -129 -161v-146h404v162q0 56 12 102t37 83.5t69.5 58t104.5 20.5q61 0 116 -14v-94q-38 12 -94 12q-129 0 -129 -162v-168h520v-1073h-116v973h-404v-973h-116v973h-404v-973 h-117v973h-121zM1198 1370q0 37 24.5 60.5t61.5 23.5t60.5 -23.5t23.5 -60.5t-23.5 -60.5t-60.5 -23.5t-61.5 23.5t-24.5 60.5z" />
<glyph unicode="&#xfb04;" horiz-adv-x="1490" d="M63 973v76l121 20v141q0 117 54.5 191t171.5 74q55 0 125 -17l-9 -92q-47 14 -96 14q-129 0 -129 -163v-144h401v162q0 118 53.5 191t170.5 73q61 0 116 -14v-94q-37 12 -94 12q-129 0 -129 -162v-168h404v402h116v-1475h-116v973h-404v-973h-117v973h-401v-973h-117v973 h-121z" />
<glyph horiz-adv-x="0" />
<glyph horiz-adv-x="682" />
<glyph unicode=" "  horiz-adv-x="409" />
<glyph unicode="&#x09;" horiz-adv-x="409" />
<glyph unicode="&#xa0;" horiz-adv-x="409" />
<glyph unicode="!" horiz-adv-x="636" d="M225 66q0 43 26.5 67.5t67.5 24.5q40 0 66.5 -24.5t26.5 -65.5q0 -42 -27 -67.5t-66 -25.5q-40 0 -67 25t-27 66zM256 979v496h129v-496l-16 -582h-97z" />
<glyph unicode="&#x22;" horiz-adv-x="681" d="M154 913v562h104v-562h-104zM424 913v562h106v-562h-106z" />
<glyph unicode="#" horiz-adv-x="1421" d="M115 410v90h276l105 301h-271v90h303l144 414l84 -21l-135 -393h342l145 412l86 -19l-139 -393h260v-90h-293l-102 -301h286v-90h-317l-139 -379l-82 20l129 359h-344l-138 -379l-82 20l127 359h-245zM487 500h336l109 301h-346z" />
<glyph unicode="$" horiz-adv-x="1052" d="M47 197l72 73q186 -176 373 -176q143 0 236 70.5t93 195.5q0 111 -72 181t-260 127q-219 67 -306 150.5t-87 234.5q0 149 101 240.5t266 103.5v174h92v-174q241 -16 375 -191l-76 -65q-71 78 -158.5 118.5t-177.5 40.5q-134 0 -219.5 -63t-85.5 -176q0 -50 15.5 -89 t40.5 -66.5t71.5 -53t94 -44t122.5 -42.5q208 -65 295.5 -157.5t87.5 -239.5q0 -154 -108 -255.5t-277 -115.5v-176h-94v176q-243 13 -414 199z" />
<glyph unicode="%" horiz-adv-x="1687" d="M88 1155q0 134 90 223.5t225 89.5t225.5 -86.5t90.5 -224.5q0 -129 -92 -220t-224 -91q-138 0 -226.5 85.5t-88.5 223.5zM188 1157q0 -99 60 -160t155 -61q92 0 153.5 63t61.5 158q0 97 -61.5 160t-153.5 63q-93 0 -154 -64t-61 -159zM340 0l897 1475h113l-897 -1475 h-113zM965 305q0 132 91 222.5t224 90.5q135 0 225 -89.5t90 -221.5q0 -131 -91 -221t-224 -90q-136 0 -225.5 87.5t-89.5 221.5zM1067 307q0 -96 60 -159.5t153 -63.5q92 0 152.5 64.5t60.5 158.5q0 92 -61 157.5t-152 65.5q-92 0 -152.5 -64.5t-60.5 -158.5z" />
<glyph unicode="&#x26;" horiz-adv-x="1449" d="M168 397q0 294 356 457q-80 85 -124 163t-44 165q0 131 88.5 214t227.5 83q135 0 224 -79t89 -206q0 -120 -74.5 -210t-216.5 -159l191 -233l264 209l65 -78l-266 -213l379 -459l-86 -69l-174 206q-95 -116 -200.5 -170.5t-241.5 -54.5q-200 0 -328.5 121.5t-128.5 312.5 zM289 399q0 -138 95.5 -234.5t246.5 -96.5q106 0 195 53t175 158l-411 499q-301 -134 -301 -379zM471 1186q0 -122 156 -289q247 113 247 291q0 79 -58.5 134.5t-147.5 55.5q-88 0 -142.5 -53.5t-54.5 -138.5z" />
<glyph unicode="'" horiz-adv-x="411" d="M154 913v562h104v-562h-104z" />
<glyph unicode="(" horiz-adv-x="702" d="M147 604q0 494 336 893l78 -47q-152 -198 -224.5 -403.5t-72.5 -442.5q0 -241 69.5 -427.5t227.5 -383.5l-67 -53q-169 165 -258 385t-89 479z" />
<glyph unicode=")" horiz-adv-x="702" d="M141 -207q158 197 227.5 383.5t69.5 427.5q0 237 -72.5 442.5t-224.5 403.5l78 47q336 -399 336 -893q0 -259 -88.5 -479t-257.5 -385z" />
<glyph unicode="*" horiz-adv-x="847" d="M123 1231l20 61l234 -57l16 240h62l14 -238l236 57l20 -63l-225 -80l143 -221l-49 -37l-172 205l-174 -205l-51 39l147 219z" />
<glyph unicode="+" horiz-adv-x="1228" d="M78 563v96h485v490h103v-490h483v-96h-483v-485h-103v485h-485z" />
<glyph unicode="," horiz-adv-x="512" d="M147 72q0 44 31.5 71t79.5 27q59 0 90 -41t31 -94q0 -202 -201 -297l-28 49q82 46 117 95t36 122q-27 -24 -65 -24q-43 0 -67 27.5t-24 64.5z" />
<glyph unicode="-" horiz-adv-x="692" d="M74 516v105h544v-105h-544z" />
<glyph unicode="." horiz-adv-x="505" d="M154 72q0 46 27.5 72t70.5 26q44 0 72 -25.5t28 -70.5t-28 -72t-72 -27q-43 0 -70.5 26.5t-27.5 70.5z" />
<glyph unicode="/" horiz-adv-x="722" d="M51 -188l502 1701h113l-508 -1701h-107z" />
<glyph unicode="0" horiz-adv-x="1224" d="M141 725q0 750 471 750q230 0 350.5 -184t120.5 -562q0 -381 -121.5 -567.5t-351.5 -186.5q-469 0 -469 750zM260 725q0 -645 352 -645q175 0 264 156.5t89 490.5q0 330 -88.5 486.5t-264.5 156.5q-175 0 -263.5 -157t-88.5 -488z" />
<glyph unicode="1" horiz-adv-x="907" d="M86 1212q106 26 221 91.5t189 148.5h82v-1358h288v-94h-735v94h330v1180q-169 -118 -357 -156z" />
<glyph unicode="2" d="M55 1272q86 94 202.5 148.5t244.5 54.5q159 0 270 -96t111 -257q0 -108 -33.5 -189.5t-118.5 -187.5l-502 -639h666v-106h-817v86l555 711q70 89 99.5 159.5t29.5 151.5q0 114 -75 184t-195 70q-191 0 -367 -170z" />
<glyph unicode="3" horiz-adv-x="1048" d="M37 170l72 84q91 -89 176.5 -128.5t203.5 -39.5q138 0 232 83.5t94 213.5q0 69 -19 124t-59.5 97.5t-110 65.5t-163.5 24q-15 0 -57.5 -2t-43.5 -2l-4 109q161 5 268 94t107 225q0 117 -76.5 182.5t-187.5 65.5q-184 0 -322 -106l-53 81q175 134 383 134 q166 0 271.5 -92.5t105.5 -254.5q0 -122 -75 -223.5t-195 -136.5q179 -17 265.5 -115t86.5 -262q0 -193 -127.5 -304.5t-314.5 -111.5q-137 0 -246 45t-211 150z" />
<glyph unicode="4" horiz-adv-x="1083" d="M70 358v91l628 1003h154v-989h180v-105h-180v-358h-111v358h-671zM197 463h544v870z" />
<glyph unicode="5" horiz-adv-x="1085" d="M94 100l53 95q192 -113 338 -113q162 0 258.5 92t96.5 275q0 153 -74.5 248.5t-216.5 95.5q-179 0 -293 -127l-8 -101h-103l60 887h678l-6 -113h-574l-39 -557q48 49 126.5 82t170.5 33q193 0 295 -116.5t102 -321.5q0 -233 -127.5 -358.5t-332.5 -125.5q-97 0 -204 30.5 t-200 94.5z" />
<glyph unicode="6" horiz-adv-x="1095" d="M119 610q0 430 136.5 647.5t379.5 217.5q79 0 160 -30t145 -87l-57 -82q-115 94 -248 94q-63 0 -116.5 -19.5t-92.5 -53t-70 -82.5t-51.5 -103.5t-35.5 -121.5t-23 -130t-13 -135q166 170 367 170q96 0 171 -36t121 -99t69.5 -143t23.5 -173q0 -225 -112 -347t-310 -122 q-221 0 -332.5 163t-111.5 472zM233 610q0 -526 334 -526q131 0 216 87.5t85 266.5q0 175 -81.5 262.5t-208.5 87.5q-69 0 -143 -33.5t-118.5 -69t-83.5 -75.5z" />
<glyph unicode="7" horiz-adv-x="894" d="M35 1339v113h827v-84l-553 -1368h-119v16l541 1323h-696z" />
<glyph unicode="8" horiz-adv-x="1071" d="M92 356q0 149 87 257t239 171q-266 101 -266 346q0 156 108.5 250.5t278.5 94.5q169 0 275 -87t106 -237q0 -112 -73.5 -208t-193.5 -155q165 -70 243.5 -166.5t78.5 -234.5q0 -188 -124 -300t-329 -112q-203 0 -316.5 101.5t-113.5 279.5zM211 356q0 -124 85.5 -200 t233.5 -76q146 0 235 84.5t89 222.5q0 236 -336 346q-307 -127 -307 -377zM270 1126q0 -102 77.5 -174.5t197.5 -115.5q44 19 86.5 47.5t82 67.5t63.5 90t24 104q0 110 -70.5 169.5t-191.5 59.5t-195 -66t-74 -182z" />
<glyph unicode="9" horiz-adv-x="1079" d="M82 1008q0 211 114.5 339t309.5 128q216 0 329 -165.5t113 -455.5q0 -440 -129.5 -659.5t-357.5 -219.5q-196 0 -326 109l58 88q65 -45 125 -68.5t137 -23.5q339 0 383 641q-169 -166 -371 -166q-97 0 -172 36.5t-120.5 100t-69 144t-23.5 172.5zM201 1012 q0 -175 80 -261.5t206 -86.5q181 0 344 182q1 262 -87 390t-242 128q-129 0 -215 -89.5t-86 -262.5z" />
<glyph unicode=":" horiz-adv-x="505" d="M154 72q0 46 27.5 72t70.5 26q44 0 72 -25.5t28 -70.5t-28 -72t-72 -27q-43 0 -70.5 26.5t-27.5 70.5zM154 909q0 46 27.5 72.5t70.5 26.5q44 0 72 -26t28 -71t-28 -71.5t-72 -26.5q-43 0 -70.5 26t-27.5 70z" />
<glyph unicode=";" horiz-adv-x="512" d="M147 72q0 44 31.5 71t79.5 27q59 0 90 -41t31 -94q0 -202 -201 -297l-28 49q82 46 117 95t36 122q-27 -24 -65 -24q-43 0 -67 27.5t-24 64.5zM164 909q0 46 27.5 72.5t70.5 26.5q44 0 72 -26t28 -71t-28 -71.5t-72 -26.5q-43 0 -70.5 26t-27.5 70z" />
<glyph unicode="&#x3c;" horiz-adv-x="1228" d="M39 571v60l1118 456l37 -92l-985 -395l985 -391l-37 -94z" />
<glyph unicode="=" horiz-adv-x="1228" d="M82 379v90h1065v-90h-1065zM82 692v92h1065v-92h-1065z" />
<glyph unicode="&#x3e;" horiz-adv-x="1228" d="M35 219l981 393l-981 396l37 90l1116 -455v-61l-1118 -455z" />
<glyph unicode="?" horiz-adv-x="1056" d="M115 1069q0 203 110.5 316.5t319.5 113.5q175 0 287 -95t112 -257q0 -64 -20.5 -122.5t-54 -104t-73.5 -88.5t-79.5 -85.5t-73 -86.5t-54 -99t-20.5 -115v-49h-108v49q0 71 19.5 133t51.5 108.5t70 89t76 81.5t70 78.5t51.5 88.5t19.5 103q0 125 -72.5 195t-211.5 70 q-142 0 -224 -86.5t-82 -237.5h-114zM420 66q0 43 26.5 67.5t67.5 24.5q40 0 66 -24t26 -66t-26.5 -67.5t-65.5 -25.5q-40 0 -67 25t-27 66z" />
<glyph unicode="@" horiz-adv-x="2011" d="M129 377q0 167 48.5 316t136.5 264t207 198.5t266 127.5t307 44q355 0 570.5 -188.5t215.5 -501.5q0 -177 -63.5 -325t-184 -238t-274.5 -90q-105 0 -157.5 53t-41.5 145q-112 -192 -307 -192q-138 0 -207.5 84.5t-69.5 230.5q0 139 60.5 260.5t175 198t258.5 76.5 q175 0 295 -74l-117 -492q-26 -112 4 -162.5t121 -50.5q90 0 169 49.5t132.5 129t84 180t30.5 203.5q0 196 -90.5 337.5t-247.5 212t-363 70.5q-180 0 -339.5 -66t-274.5 -180.5t-181.5 -275.5t-66.5 -344q0 -168 62 -307.5t169 -232t250 -143t306 -50.5q173 0 315 48.5 t277 145.5l45 -65q-269 -211 -635 -211q-147 0 -280.5 35t-243.5 104.5t-191 167t-125.5 227.5t-44.5 281zM672 305q0 -108 50 -175t144 -67q108 0 187 84.5t110 198.5l94 367q-65 45 -186 45q-114 0 -207 -64t-142.5 -167.5t-49.5 -221.5z" />
<glyph unicode="A" horiz-adv-x="1296" d="M43 0l541 1475h127l542 -1475h-131l-166 451h-616l-164 -451h-133zM375 561h545l-273 766z" />
<glyph unicode="B" horiz-adv-x="1275" d="M180 0v1475h488q452 0 452 -365q0 -55 -15.5 -107.5t-46.5 -100.5t-86 -81.5t-126 -42.5v-4q76 -6 136.5 -31t99.5 -60.5t65 -81.5t36.5 -91.5t10.5 -91.5q0 -91 -26.5 -162t-73 -119t-114 -79t-146 -44.5t-172.5 -13.5h-482zM301 104h391q184 0 279.5 86.5t95.5 233.5 q0 79 -28.5 135t-83 88.5t-124.5 47t-161 14.5h-369v-605zM301 815h301q65 0 119 7t106 27t87.5 51.5t57 84t21.5 121.5q0 141 -91.5 202.5t-266.5 61.5h-334v-555z" />
<glyph unicode="C" horiz-adv-x="1325" d="M123 743q0 157 39 292.5t114.5 240.5t196.5 165t275 60q139 0 250 -53t176.5 -154t68.5 -233h-121q-6 65 -29 121.5t-66.5 104t-115.5 75t-166 27.5q-154 0 -266 -81.5t-168.5 -224.5t-56.5 -333q0 -317 132.5 -489.5t358.5 -172.5q138 0 237.5 50t188.5 143l74 -82 q-204 -224 -506 -224q-127 0 -230.5 40.5t-174.5 110.5t-119 168t-70 210t-22 239z" />
<glyph unicode="D" horiz-adv-x="1415" d="M180 0v1475h391q356 0 538.5 -180t182.5 -560q0 -386 -184 -560.5t-555 -174.5h-373zM303 113h279q302 0 441.5 156t139.5 466q0 309 -139.5 468t-441.5 159h-279v-1249z" />
<glyph unicode="E" horiz-adv-x="1214" d="M180 0v1475h903v-109h-780v-551h713v-110h-713v-599h799v-106h-922z" />
<glyph unicode="F" horiz-adv-x="1105" d="M180 0v1475h856v-107h-733v-561h649v-107h-649v-700h-123z" />
<glyph unicode="G" horiz-adv-x="1458" d="M123 748q0 226 74.5 394.5t225 263.5t361.5 95q115 0 206 -25t149.5 -65.5t97 -97.5t55 -116t17.5 -126h-125q-2 65 -25.5 120t-70.5 99.5t-127 70t-185 25.5q-103 0 -188.5 -32.5t-146.5 -91t-103.5 -138.5t-63 -174.5t-20.5 -199.5q0 -317 138 -490.5t394 -173.5 q130 0 231.5 43t188.5 133v371h-344v106h455v-530q-195 -234 -537 -234q-138 0 -248.5 39t-186 107.5t-126 166t-73.5 212t-23 248.5z" />
<glyph unicode="H" horiz-adv-x="1421" d="M180 0v1475h123v-644h813v644h125v-1475h-125v721h-813v-721h-123z" />
<glyph unicode="I" horiz-adv-x="483" d="M180 0v1475h123v-1475h-123z" />
<glyph unicode="J" horiz-adv-x="790" d="M39 33l31 100q117 -51 239 -51q101 0 145 56.5t44 203.5v1133h125v-1164q0 -171 -76.5 -253.5t-235.5 -82.5q-153 0 -272 58z" />
<glyph unicode="K" horiz-adv-x="1273" d="M180 0v1475h123v-656h307l394 656h139l-424 -703l504 -772h-144l-469 715h-307v-715h-123z" />
<glyph unicode="L" horiz-adv-x="1062" d="M180 0v1475h123v-1364h701v-111h-824z" />
<glyph unicode="M" horiz-adv-x="1765" d="M129 0l150 1475h153l451 -1305l452 1305h150l151 -1475h-118l-132 1286l-452 -1286h-109l-446 1286l-129 -1286h-121z" />
<glyph unicode="N" horiz-adv-x="1429" d="M180 0v1475h119l827 -1260v1260h123v-1475h-114l-832 1262v-1262h-123z" />
<glyph unicode="O" horiz-adv-x="1550" d="M123 758q0 182 50 324.5t139.5 233.5t210 138t265.5 47q137 0 252 -47t202 -137.5t136 -234t49 -324.5q0 -162 -32.5 -293t-91 -221.5t-140.5 -151.5t-179 -89t-210 -28q-114 0 -211 28.5t-179 90t-139.5 152.5t-89.5 221t-32 291zM254 758q0 -333 142 -500.5t388 -167.5 q238 0 375 166t137 502q0 302 -140.5 465t-375.5 163q-242 0 -384 -163.5t-142 -464.5z" />
<glyph unicode="P" horiz-adv-x="1206" d="M180 0v1475h445q245 0 366 -111.5t121 -316.5q0 -206 -128.5 -323.5t-383.5 -117.5h-297v-606h-123zM303 713h295q195 0 292 84t97 247q0 162 -89 241t-280 79h-315v-651z" />
<glyph unicode="Q" horiz-adv-x="1550" d="M123 758q0 182 50 324.5t139.5 233.5t210 138t265.5 47q137 0 252 -47t202 -137.5t136 -234t49 -324.5q0 -290 -99.5 -472t-274.5 -257l340 -117l-35 -105l-484 175q-58 -7 -100 -7q-114 0 -211 28.5t-179 90t-139.5 152.5t-89.5 221t-32 291zM254 758q0 -333 142 -500.5 t388 -167.5q238 0 375 166t137 502q0 302 -140.5 465t-375.5 163q-242 0 -384 -163.5t-142 -464.5z" />
<glyph unicode="R" horiz-adv-x="1271" d="M180 0v1475h443q248 0 369.5 -112t121.5 -312q0 -285 -252 -402l338 -649h-135l-324 623q-71 -15 -163 -15h-275v-608h-123zM303 713h301q385 0 385 336q0 158 -89 236.5t-279 78.5h-318v-651z" />
<glyph unicode="S" horiz-adv-x="1165" d="M76 188l74 82q201 -186 434 -186q150 0 247 77.5t97 215.5q0 85 -29 140t-104 100t-215 88q-251 76 -353 164t-102 245q0 178 129.5 282.5t331.5 104.5q286 0 461 -213l-80 -74q-77 93 -177 137t-204 44q-145 0 -238.5 -72t-93.5 -203q0 -44 8 -77.5t35.5 -62.5 t47.5 -46.5t77.5 -42.5t90 -37t118.5 -42q9 -3 14 -5q232 -81 322 -170.5t90 -249.5q0 -188 -131.5 -300t-350.5 -112q-148 0 -277.5 58t-221.5 155z" />
<glyph unicode="T" horiz-adv-x="1142" d="M39 1366v109h1065v-109h-469v-1366h-125v1366h-471z" />
<glyph unicode="U" horiz-adv-x="1406" d="M170 543v932h123v-912q0 -238 108.5 -357.5t309.5 -119.5q217 0 310 118.5t93 358.5v912h123v-932q0 -282 -133.5 -425t-398.5 -143q-121 0 -218 34.5t-168.5 102.5t-110 177.5t-38.5 253.5z" />
<glyph unicode="V" horiz-adv-x="1200" d="M43 1475h129l426 -1340l432 1340h127l-483 -1475h-150z" />
<glyph unicode="W" horiz-adv-x="1886" d="M43 1475h123l358 -1319l357 1319h129l356 -1321l352 1321h125l-395 -1475h-150l-354 1298l-354 -1298h-150z" />
<glyph unicode="X" horiz-adv-x="1157" d="M43 0l463 754l-451 721h135l394 -627l381 627h139l-453 -730l461 -745h-141l-396 641l-391 -641h-141z" />
<glyph unicode="Y" horiz-adv-x="1146" d="M41 1475h139l393 -715l394 715h139l-473 -840v-635h-125v635z" />
<glyph unicode="Z" horiz-adv-x="1177" d="M82 0v84l836 1282h-773v109h955v-56l-856 -1310h854v-109h-1016z" />
<glyph unicode="[" horiz-adv-x="696" d="M197 -256v1731h346v-99h-230v-1534h230v-98h-346z" />
<glyph unicode="\" horiz-adv-x="741" d="M61 1513h113l502 -1701h-107z" />
<glyph unicode="]" horiz-adv-x="696" d="M154 -158h229v1534h-229v99h346v-1731h-346v98z" />
<glyph unicode="^" horiz-adv-x="1400" d="M158 913l485 506h113l485 -510l-74 -63l-467 483l-469 -483z" />
<glyph unicode="_" horiz-adv-x="1015" d="M-2 -381h1020v-92h-1020v92z" />
<glyph unicode="`" d="M342 1450l72 78l280 -266l-53 -62z" />
<glyph unicode="a" horiz-adv-x="1030" d="M94 281q0 48 11.5 91t45.5 88.5t87.5 78.5t145 54t210.5 21q73 0 178 -10v117q0 135 -68.5 204.5t-199.5 69.5q-153 0 -297 -131l-60 76q71 74 165.5 116t199.5 42q175 0 276 -90t101 -277v-731h-101l-8 215q-118 -240 -370 -240q-145 0 -230.5 81t-85.5 225zM213 268 q0 -91 58.5 -144.5t164.5 -53.5q92 0 171.5 60.5t122 147.5t42.5 171v57q-90 12 -166 12q-208 0 -300.5 -63.5t-92.5 -186.5z" />
<glyph unicode="b" horiz-adv-x="1165" d="M152 0v1475h116v-570q152 193 367 193q212 0 319 -150t107 -411q0 -260 -113 -411t-338 -151q-67 0 -128 18t-104 47t-71.5 57t-46.5 55l-6 -152h-102zM268 274q48 -76 133 -133t197 -57q161 0 250.5 115t89.5 333q0 223 -83 340t-241 117q-106 0 -187.5 -56.5 t-158.5 -154.5v-504z" />
<glyph unicode="c" horiz-adv-x="1054" d="M102 543q0 132 36.5 238.5t101 175t149.5 105t184 36.5q178 0 282.5 -100.5t115.5 -278.5h-109q-18 136 -93.5 204t-193.5 68q-162 0 -256 -120t-94 -326q0 -125 39.5 -228.5t123 -169t198.5 -65.5q96 0 163.5 27t159.5 96l52 -82q-166 -148 -388 -148 q-218 0 -344.5 155.5t-126.5 412.5z" />
<glyph unicode="d" horiz-adv-x="1163" d="M102 535q0 257 115 410t326 153q80 0 149.5 -28t114.5 -65.5t90 -93.5v564h115v-1475h-109l-2 154q-145 -179 -360 -179q-219 0 -329 151t-110 409zM225 535q0 -69 10.5 -131.5t36 -121.5t63.5 -102.5t97.5 -69.5t134.5 -26q178 0 328 186v508q-25 34 -53.5 65t-71.5 67 t-99 57.5t-114 21.5q-151 0 -241.5 -119t-90.5 -335z" />
<glyph unicode="e" horiz-adv-x="1077" d="M102 532q0 257 129 411.5t347 154.5q405 0 405 -516v-72h-756q2 -200 93 -314t272 -114q92 0 166.5 28t152.5 93l54 -82q-164 -146 -383 -146q-225 0 -352.5 139.5t-127.5 417.5zM227 612h639q-2 88 -17 154.5t-47 119.5t-88.5 81t-135.5 28q-67 0 -123 -20t-92.5 -53.5 t-64 -73.5t-42.5 -85t-21.5 -82t-7.5 -69z" />
<glyph unicode="f" horiz-adv-x="514" d="M63 973v76l121 20v166q0 117 54.5 190.5t171.5 73.5q68 0 125 -16l-9 -92q-47 14 -96 14q-129 0 -129 -164v-168h203v-100h-203v-973h-117v973h-121z" />
<glyph unicode="g" horiz-adv-x="1181" d="M102 535q0 118 26.5 218t79 178t140 122.5t201.5 44.5q63 0 120.5 -18.5t101 -49.5t73.5 -61t55 -64v168h113v-1057q0 -129 -26 -215.5t-81.5 -137.5t-132 -72t-186.5 -21q-212 0 -379 65l29 103q167 -68 331 -68q101 0 166.5 21.5t101.5 69.5t50 112.5t14 163.5v113 q-63 -76 -154 -123t-206 -47q-114 0 -200 43t-136.5 120t-75.5 175t-25 217zM225 539q0 -207 86 -330t252 -123q60 0 112.5 17t96.5 50.5t66.5 55t56.5 59.5v506q-21 34 -51 68t-72 69t-96.5 56.5t-110.5 21.5q-165 0 -252.5 -121t-87.5 -329z" />
<glyph unicode="h" horiz-adv-x="1095" d="M152 0v1475h116v-568q166 191 361 191q170 0 246.5 -105t76.5 -303v-690h-116v670q0 53 -4 94t-18.5 85t-39 73t-68 48t-102.5 19q-179 0 -336 -201v-788h-116z" />
<glyph unicode="i" horiz-adv-x="442" d="M135 1370q0 35 25.5 57.5t62.5 22.5t60.5 -22.5t23.5 -57.5t-23.5 -57.5t-60.5 -22.5t-62.5 22.5t-25.5 57.5zM164 0v1073h115v-1073h-115z" />
<glyph unicode="j" horiz-adv-x="444" d="M-63 -395l14 92q44 -14 96 -14q60 0 88.5 33t28.5 124v1233h117v-1235q0 -128 -45.5 -191t-165.5 -63q-77 0 -133 21zM137 1370q0 36 25.5 60t62.5 24t60.5 -23.5t23.5 -60.5t-23.5 -60.5t-60.5 -23.5t-62.5 24t-25.5 60z" />
<glyph unicode="k" horiz-adv-x="1009" d="M152 0v1475h116v-826h131l375 424h144l-418 -475l469 -598h-146l-430 545h-125v-545h-116z" />
<glyph unicode="l" horiz-adv-x="419" d="M152 0v1475h116v-1475h-116z" />
<glyph unicode="m" horiz-adv-x="1624" d="M152 0v1073h110v-170q150 195 338 195q116 0 177 -52t87 -143q77 91 158.5 143t187.5 52q84 0 141.5 -29t87 -82t41 -111.5t11.5 -134.5v-741h-117v729q0 128 -43 193t-151 65q-139 0 -297 -192v-795h-119v725q0 128 -42.5 195t-150.5 67q-41 0 -82.5 -15t-71 -34 t-62.5 -50.5t-48.5 -49.5t-38.5 -47v-791h-116z" />
<glyph unicode="n" horiz-adv-x="1095" d="M152 0v1073h110v-166q158 191 361 191q76 0 133.5 -20.5t94 -55.5t59.5 -88t32.5 -112.5t9.5 -133.5v-688h-116v674q0 161 -56 238t-182 77q-169 0 -330 -201v-788h-116z" />
<glyph unicode="o" horiz-adv-x="1157" d="M102 532q0 262 128 414t345 152q219 0 349.5 -149.5t130.5 -413.5q0 -259 -131.5 -409.5t-352.5 -150.5q-222 0 -345.5 148t-123.5 409zM225 535q0 -221 96.5 -336t253.5 -115q158 0 257.5 115t99.5 336q0 223 -99.5 338.5t-257.5 115.5q-156 0 -253 -116.5t-97 -337.5z " />
<glyph unicode="p" horiz-adv-x="1171" d="M152 -410v1483h112v-172q154 197 373 197q212 0 318 -150t106 -411q0 -259 -112.5 -410.5t-332.5 -151.5q-67 0 -128 18t-104 46t-71 54t-45 50v-553h-116zM268 268q56 -74 139 -129t193 -55q159 0 248.5 115t89.5 333q0 222 -83 339.5t-241 117.5q-106 0 -187.5 -56.5 t-158.5 -154.5v-510z" />
<glyph unicode="q" horiz-adv-x="1169" d="M102 535q0 257 116 410t329 153q116 0 200.5 -50.5t155.5 -138.5v164h109v-1483h-117v547q-150 -162 -352 -162q-112 0 -197 41t-138 116t-79.5 176t-26.5 227zM225 535q0 -69 10.5 -131.5t36 -121.5t63.5 -102.5t97.5 -69.5t134.5 -26q181 0 328 182v514q-24 34 -52 65 t-70.5 66.5t-98.5 56.5t-117 21q-151 0 -241.5 -119t-90.5 -335z" />
<glyph unicode="r" horiz-adv-x="618" d="M152 0v1073h104v-174q37 88 102.5 143.5t145.5 55.5q52 0 96 -15l-16 -116q-31 10 -86 10q-74 0 -134.5 -63t-95.5 -146v-768h-116z" />
<glyph unicode="s" horiz-adv-x="946" d="M57 139l66 80q168 -141 338 -141q119 0 195.5 54.5t76.5 146.5q0 88 -60 138t-224 87q-187 42 -263.5 110.5t-76.5 188.5q0 137 98.5 216t265.5 79q227 0 373 -158l-66 -72q-132 129 -303 129q-115 0 -180.5 -47.5t-65.5 -134.5t63.5 -131t217.5 -84q184 -46 265 -117.5 t81 -191.5q0 -144 -107.5 -230t-283.5 -86q-121 0 -229.5 46t-180.5 118z" />
<glyph unicode="t" horiz-adv-x="579" d="M53 973v76l131 24l21 285h94v-285h205v-100h-205v-793q0 -59 21.5 -82.5t74.5 -23.5q58 0 127 30l27 -86q-92 -43 -170 -43q-97 0 -146 43.5t-49 137.5v817h-131z" />
<glyph unicode="u" horiz-adv-x="1091" d="M141 360v713h119v-690q0 -152 51 -225.5t178 -73.5q173 0 334 199v790h117v-1073h-111v164q-63 -78 -154 -133.5t-206 -55.5q-78 0 -137 20.5t-94.5 55t-58 85t-30.5 104.5t-8 120z" />
<glyph unicode="v" horiz-adv-x="946" d="M27 1073h123l321 -946l332 946h117l-383 -1073h-138z" />
<glyph unicode="w" horiz-adv-x="1445" d="M53 1073h117l213 -926l276 914h117l289 -914l211 926h117l-263 -1073h-126l-287 901l-279 -901h-125z" />
<glyph unicode="x" horiz-adv-x="948" d="M33 0l368 547l-358 526h133l299 -442l291 442h129l-352 -526l370 -547h-131l-309 465l-309 -465h-131z" />
<glyph unicode="y" horiz-adv-x="940" d="M29 1073h129l313 -915l307 915h121l-389 -1143q-20 -58 -32 -91.5t-30 -76t-33 -65t-36.5 -47.5t-44.5 -36.5t-53.5 -19.5t-67.5 -8q-94 0 -176 23l18 98q61 -18 142 -18q65 0 103.5 43.5t78.5 169.5l33 100z" />
<glyph unicode="z" horiz-adv-x="864" d="M70 0v84l581 887h-567v102h721v-67l-590 -904h584v-102h-729z" />
<glyph unicode="{" horiz-adv-x="722" d="M72 526v103h51q106 0 142 60.5t36 207.5v223q0 94 13 157t46.5 109.5t92 67.5t147.5 21h78v-95h-88q-99 0 -134.5 -61.5t-35.5 -194.5v-282q0 -44 -3 -74.5t-12.5 -63.5t-28 -55t-50 -41t-76.5 -30q46 -7 78.5 -26t50 -43t27 -62t12 -70.5t2.5 -81.5v-201q0 -136 38 -196 t148 -60h72v-94h-70q-171 0 -239 70.5t-68 238.5v242q0 118 -37.5 174.5t-138.5 56.5h-53z" />
<glyph unicode="|" d="M459 -410v1885h104v-1885h-104z" />
<glyph unicode="}" horiz-adv-x="722" d="M45 -162h72q110 0 148 60t38 196v201q0 49 2.5 81.5t12 70.5t27 62t50 43t78.5 26q-45 11 -76.5 30t-50 41t-28 55t-12.5 63.5t-3 74.5v282q0 133 -35.5 194.5t-134.5 61.5h-88v95h78q89 0 147.5 -21t92 -67.5t46.5 -109.5t13 -157v-223q0 -147 36 -207.5t142 -60.5h51 v-103h-53q-101 0 -138.5 -56.5t-37.5 -174.5v-242q0 -168 -68 -238.5t-239 -70.5h-70v94z" />
<glyph unicode="~" horiz-adv-x="1597" d="M143 551q98 79 191 119.5t201 40.5q72 0 156.5 -22.5t147 -49.5t134 -49.5t121.5 -22.5q79 0 150 32t169 106l62 -76q-198 -160 -377 -160q-71 0 -153 22.5t-144.5 49t-138.5 49t-136 22.5q-87 0 -160 -35t-163 -106z" />
<glyph unicode="&#xa1;" horiz-adv-x="636" d="M225 1006q0 41 26.5 65.5t67.5 24.5q39 0 66 -25t27 -67t-26.5 -66.5t-66.5 -24.5q-41 0 -67.5 25t-26.5 68zM256 92l16 582h97l16 -582v-495h-129v495z" />
<glyph unicode="&#xa2;" horiz-adv-x="1077" d="M123 727q0 249 121 391.5t313 155.5v201h94v-203q152 -15 240 -113.5t102 -259.5h-108q-17 138 -93 207.5t-196 69.5q-162 0 -255 -120t-93 -327q0 -94 23 -178t66.5 -149.5t112.5 -103.5t156 -38q94 0 166 30t164 99l55 -78q-148 -133 -340 -149v-199h-94v197 q-201 13 -317.5 167t-116.5 400z" />
<glyph unicode="&#xa3;" horiz-adv-x="1036" d="M92 0v100l98 4q73 84 117.5 167t44.5 175q0 79 -57 224h-199v96h166q-43 86 -62 128.5t-37 104t-18 113.5q0 112 57 196t148.5 125.5t200.5 41.5q252 0 389 -170l-76 -68q-112 133 -301 133q-135 0 -216 -68t-81 -196q0 -42 16.5 -98t35.5 -99t65 -143h326v-96h-295 q19 -49 35 -115t16 -109q0 -96 -39 -175.5t-107 -164.5h613v-106h-840z" />
<glyph unicode="&#xa4;" horiz-adv-x="1228" d="M104 240l201 198q-90 104 -90 250q0 137 90 248l-199 201l60 61l199 -199q113 88 251 88q139 0 248 -88l199 199l61 -61l-200 -201q92 -110 92 -248q0 -139 -90 -250l200 -198l-61 -62l-201 199q-109 -88 -248 -88q-138 0 -251 88q-20 -20 -62 -63.5t-74.5 -75.5 t-64.5 -60zM305 688q0 -131 89.5 -221t219.5 -90q128 0 219 91t91 220q0 130 -91 218.5t-219 88.5q-130 0 -219.5 -88.5t-89.5 -218.5z" />
<glyph unicode="&#xa5;" horiz-adv-x="1157" d="M86 1452h131l361 -629l364 629h127l-383 -649h346v-94h-399v-162h399v-94h-399v-453h-113v453h-397v94h397v162h-397v94h344z" />
<glyph unicode="&#xa6;" d="M459 -410v828h104v-828h-104zM459 647v828h104v-828h-104z" />
<glyph unicode="&#xa7;" horiz-adv-x="1073" d="M174 133l68 72q147 -135 297 -135q56 0 107 16t89.5 58t38.5 102q0 24 -8 45t-19 36t-33.5 30t-39 24t-50 20.5t-51.5 17.5t-57 17l-69 21t-64.5 23t-64 30t-51.5 36.5t-44 47.5t-26 59.5t-11 75.5q0 89 61.5 162.5t186.5 87.5q-244 67 -244 256q0 109 90 187.5t242 78.5 q100 0 193 -37.5t145 -101.5l-61 -62q-121 111 -269 111q-97 0 -160 -45.5t-63 -122.5q0 -44 20 -77t60 -55.5t79 -37t98 -32.5q12 -3 18 -5q58 -18 94.5 -31t84 -38.5t74.5 -54.5t46.5 -75.5t19.5 -103.5q0 -106 -67 -167t-168 -74q117 -42 171 -98.5t54 -141.5 q0 -119 -96 -198t-248 -79q-104 0 -206 41.5t-167 116.5zM293 731q0 -79 78.5 -129t189.5 -53q45 2 83.5 11.5t73 30t54 58t19.5 88.5q0 86 -75.5 135.5t-180.5 49.5q-116 0 -179 -50.5t-63 -140.5z" />
<glyph unicode="&#xa8;" d="M248 1339q0 34 25 59t63 25q37 0 61.5 -24.5t24.5 -59.5q0 -34 -25 -58t-61 -24q-38 0 -63 24t-25 58zM612 1339q0 34 25 59t63 25q37 0 61.5 -24.5t24.5 -59.5q0 -34 -25 -58t-61 -24q-38 0 -63 24t-25 58z" />
<glyph unicode="&#xa9;" horiz-adv-x="1658" d="M92 737q0 208 97.5 377.5t266 265t373.5 95.5q213 0 381.5 -92.5t262.5 -259.5t94 -378q0 -157 -61 -297t-162.5 -237.5t-236 -154t-278.5 -56.5q-120 0 -228.5 29t-201.5 89t-161.5 146.5t-107 207.5t-38.5 265zM174 737q0 -161 53 -289t144.5 -208t208 -122t249.5 -42 q124 0 243.5 50t211.5 136t148.5 211t56.5 264q0 145 -50.5 269t-138.5 210.5t-210 135.5t-261 49q-188 0 -338.5 -88t-233.5 -239.5t-83 -336.5zM496 743q0 112 37 201.5t115.5 145t187.5 55.5q122 0 196.5 -67t75.5 -189h-80q-8 85 -53.5 131.5t-143.5 46.5 q-119 0 -183 -86.5t-64 -232.5q0 -167 66.5 -249.5t185.5 -82.5q73 0 124 26t103 76l49 -53q-117 -127 -285 -127q-110 0 -186.5 55.5t-110.5 145t-34 204.5z" />
<glyph unicode="&#xaa;" horiz-adv-x="954" d="M133 741q0 47 16.5 87.5t56 79t119.5 61t193 22.5q61 0 146 -10v72q0 95 -52 145.5t-143 50.5q-135 0 -256 -96l-47 72q139 112 311 112q128 0 206.5 -67t78.5 -201v-528h-94v139q-38 -74 -112 -116t-165 -42q-117 0 -187.5 58.5t-70.5 160.5zM236 748q0 -65 45.5 -102.5 t121.5 -37.5q105 0 183 75.5t78 174.5v41q-93 10 -138 10q-153 0 -221.5 -39t-68.5 -122z" />
<glyph unicode="&#xab;" horiz-adv-x="937" d="M94 516v35l318 299l59 -57l-252 -258l252 -261l-59 -53zM487 516v35l318 299l59 -57l-252 -258l252 -261l-59 -53z" />
<glyph unicode="&#xac;" horiz-adv-x="1228" d="M66 688v92h1097v-518h-96v426h-1001z" />
<glyph unicode="&#xad;" horiz-adv-x="692" d="M74 516v105h544v-105h-544z" />
<glyph unicode="&#xae;" horiz-adv-x="864" d="M74 1124q0 153 103.5 256t254.5 103q159 0 259 -100t100 -259q0 -151 -107.5 -254.5t-251.5 -103.5q-158 0 -258 96t-100 262zM141 1124q0 -142 80.5 -219.5t210.5 -77.5q116 0 203.5 86.5t87.5 210.5q0 132 -80 214.5t-211 82.5q-125 0 -208 -85t-83 -212zM303 948v359 h139q62 0 93.5 -29t31.5 -78q0 -70 -63 -98l86 -154h-60l-77 139h-97v-139h-53zM356 1130h68q90 0 90 68q0 35 -19.5 49.5t-64.5 14.5h-74v-132z" />
<glyph unicode="&#xaf;" d="M236 1284v96h552v-96h-552z" />
<glyph unicode="&#xb0;" horiz-adv-x="628" d="M82 1346q0 95 68 163t165 68q95 0 163.5 -68t68.5 -163q0 -98 -67.5 -165t-164.5 -67t-165 67t-68 165zM168 1348q0 -67 42 -111.5t105 -44.5q64 0 105 44.5t41 111.5q0 64 -40.5 104.5t-105.5 40.5q-64 0 -105.5 -41t-41.5 -104z" />
<glyph unicode="&#xb1;" horiz-adv-x="1228" d="M78 563v96h485v490h103v-490h483v-96h-483v-467h481v-96h-1065v96h481v467h-485z" />
<glyph unicode="&#xb2;" horiz-adv-x="612" d="M23 1468q59 50 133 82.5t149 32.5q104 0 165.5 -51t61.5 -139q0 -114 -104 -224l-256 -262h371v-88h-506v74l291 303q55 59 76.5 95.5t21.5 88.5q0 55 -33.5 84t-95.5 29q-108 0 -227 -94z" />
<glyph unicode="&#xb3;" horiz-adv-x="643" d="M29 907l51 66q58 -44 105.5 -63t115.5 -19q172 0 172 133q0 137 -197 137q-6 0 -20.5 -0.5t-26 -1t-12.5 -0.5v86q97 2 153 39t56 107q0 61 -37 84.5t-104 23.5q-97 0 -187 -57l-37 69q109 72 242 72q104 0 163.5 -45.5t59.5 -136.5q0 -67 -41 -117.5t-112 -69.5 q107 -7 153.5 -58.5t46.5 -131.5q0 -103 -74.5 -161t-193.5 -58q-171 0 -276 102z" />
<glyph unicode="&#xb4;" d="M340 1262l283 266l69 -80l-299 -248z" />
<glyph unicode="&#xb5;" horiz-adv-x="1159" d="M174 -410v1483h115v-655q0 -346 274 -346q66 0 123 30.5t92 77t54.5 98.5t19.5 99v696h117v-1073h-109v168q-93 -191 -301 -191q-99 0 -161 34.5t-109 105.5v-527h-115z" />
<glyph unicode="&#xb6;" horiz-adv-x="1091" d="M94 1116q0 161 111 260t295 99h411v-1475h-108v1376h-219v-1376h-109v760q-178 11 -279.5 105.5t-101.5 250.5z" />
<glyph unicode="&#xb7;" horiz-adv-x="546" d="M174 694q0 46 27.5 72.5t70.5 26.5q44 0 72.5 -26t28.5 -71t-28.5 -71.5t-72.5 -26.5q-43 0 -70.5 26t-27.5 70z" />
<glyph unicode="&#xb8;" d="M338 -381l22 70q81 -29 136 -29q102 0 102 80q0 45 -35.5 60.5t-111.5 15.5h-19l45 202h74l-29 -137q42 -1 76 -12t61 -42.5t27 -80.5q0 -83 -51.5 -122.5t-134.5 -39.5q-89 0 -162 35z" />
<glyph unicode="&#xb9;" horiz-adv-x="491" d="M39 1450q66 12 134.5 46t113.5 77h71v-754h-102v611q-115 -49 -205 -56z" />
<glyph unicode="&#xba;" horiz-adv-x="966" d="M127 930q0 191 96 299t260 108q168 0 263.5 -108t95.5 -299q0 -188 -99 -298t-260 -110q-167 0 -261.5 107t-94.5 301zM225 930q0 -160 70.5 -240t187.5 -80q116 0 188 80t72 240t-72.5 241.5t-187.5 81.5q-116 0 -187 -81.5t-71 -241.5z" />
<glyph unicode="&#xbb;" horiz-adv-x="940" d="M74 274l252 261l-252 258l59 57l318 -299v-35l-318 -295zM469 274l252 261l-252 258l59 57l318 -299v-35l-318 -295z" />
<glyph unicode="&#xbc;" horiz-adv-x="1683" d="M98 1348q66 12 134.5 45.5t113.5 76.5h72v-753h-103v610q-112 -48 -204 -55zM281 -2l895 1477h106l-893 -1477h-108zM932 162v80l356 512h137v-506h95v-86h-95v-162h-96v162h-397zM1042 248h287v411z" />
<glyph unicode="&#xbd;" horiz-adv-x="1683" d="M88 1348q66 12 134.5 45.5t113.5 76.5h72v-753h-103v610q-112 -48 -205 -55zM195 -2l895 1477h106l-893 -1477h-108zM915 649q59 50 133.5 82.5t149.5 32.5q104 0 165.5 -51.5t61.5 -139.5q0 -113 -104 -223l-256 -262h371v-88h-506v74l291 303q55 59 76.5 95.5 t21.5 88.5q0 55 -33.5 84t-95.5 29q-108 0 -227 -94z" />
<glyph unicode="&#xbe;" horiz-adv-x="1683" d="M160 805l51 65q58 -44 105.5 -63t115.5 -19q82 0 127 33.5t45 100.5q0 137 -196 137q-6 0 -20.5 -0.5t-26.5 -1t-13 -0.5v86q97 2 153 38.5t56 106.5q0 61 -37 85t-104 24q-96 0 -187 -58l-36 70q109 72 241 72q103 0 163 -46t60 -137q0 -67 -41 -117t-112 -69 q107 -7 154 -58.5t47 -131.5q0 -103 -75 -161.5t-194 -58.5q-170 0 -276 103zM397 -2l895 1477h107l-893 -1477h-109zM995 162v80l357 512h137v-506h94v-86h-94v-162h-96v162h-398zM1106 248h287v411z" />
<glyph unicode="&#xbf;" horiz-adv-x="1056" d="M119 -74q0 64 20.5 122.5t54 104t73.5 88.5t79.5 85.5t73 86.5t54 99t20.5 115v49h108v-49q0 -71 -19.5 -133t-51.5 -108.5t-70 -89t-76 -81.5t-70 -78.5t-51.5 -88.5t-19.5 -103q0 -125 72.5 -194.5t211.5 -69.5q143 0 224.5 86t81.5 237h114q0 -203 -110.5 -316.5 t-319.5 -113.5q-175 0 -287 95t-112 257zM457 1006q0 42 26.5 67t65.5 25q41 0 67.5 -24.5t26.5 -65.5q0 -43 -26.5 -68t-67.5 -25q-39 0 -65.5 24.5t-26.5 66.5z" />
<glyph unicode="&#xc0;" horiz-adv-x="1296" d="M43 0l541 1475h127l542 -1475h-131l-166 451h-616l-164 -451h-133zM375 561h545l-273 766zM457 1720l47 95l342 -193l-41 -72z" />
<glyph unicode="&#xc1;" horiz-adv-x="1296" d="M43 0l541 1475h127l542 -1475h-131l-166 451h-616l-164 -451h-133zM375 561h545l-273 766zM457 1622l338 195l49 -97l-350 -170z" />
<glyph unicode="&#xc2;" horiz-adv-x="1296" d="M43 0l541 1475h127l542 -1475h-131l-166 451h-616l-164 -451h-133zM375 561h545l-273 766zM426 1599l180 179h90l178 -179l-49 -49l-174 138l-172 -140z" />
<glyph unicode="&#xc3;" horiz-adv-x="1296" d="M43 0l541 1475h127l542 -1475h-131l-166 451h-616l-164 -451h-133zM371 1630q55 135 157 135q45 0 126.5 -35.5t121.5 -35.5q31 0 50 14.5t38 56.5l68 -28q-40 -131 -148 -131q-53 0 -142 34.5t-116 34.5t-43 -14.5t-43 -61.5zM375 561h545l-273 766z" />
<glyph unicode="&#xc4;" horiz-adv-x="1296" d="M43 0l541 1475h127l542 -1475h-131l-166 451h-616l-164 -451h-133zM375 561h545l-273 766zM379 1677q0 34 25 59t63 25q37 0 61.5 -24.5t24.5 -59.5q0 -34 -25 -58t-61 -24q-38 0 -63 24t-25 58zM743 1677q0 34 25 59t63 25q37 0 62 -24.5t25 -59.5q0 -34 -25 -58 t-62 -24q-38 0 -63 24t-25 58z" />
<glyph unicode="&#xc5;" horiz-adv-x="1296" d="M43 0l535 1460q-54 19 -84.5 61.5t-30.5 104.5q0 79 54 131.5t134 52.5q82 0 135.5 -49.5t53.5 -128.5q0 -65 -33 -110.5t-90 -63.5l536 -1458h-131l-166 451h-616l-164 -451h-133zM375 561h545l-273 766zM547 1626q0 -50 28.5 -77t75.5 -27q51 0 80 30t29 80 q0 49 -29 76t-80 27q-47 0 -75.5 -29.5t-28.5 -79.5z" />
<glyph unicode="&#xc6;" horiz-adv-x="2004" d="M41 0l825 1475h1008v-109h-780v-551h712v-108h-712v-601h798v-106h-921v465h-531l-260 -465h-139zM496 573h475v793h-35z" />
<glyph unicode="&#xc7;" horiz-adv-x="1325" d="M123 743q0 157 39 292.5t114.5 240.5t196.5 165t275 60q139 0 250 -53t176.5 -154t68.5 -233h-121q-6 65 -29 121.5t-66.5 104t-115.5 75t-166 27.5q-154 0 -266 -81.5t-168.5 -224.5t-56.5 -333q0 -317 132.5 -489.5t358.5 -172.5q138 0 237.5 50t188.5 143l74 -82 q-191 -211 -471 -222l-20 -98q42 -1 76 -12t61 -42.5t27 -80.5q0 -83 -52 -122.5t-135 -39.5q-89 0 -162 35l23 70q81 -29 135 -29q102 0 102 80q0 45 -35.5 60.5t-111.5 15.5h-18l34 163q-119 6 -215.5 49t-162.5 113.5t-111 166.5t-65.5 205t-20.5 232z" />
<glyph unicode="&#xc8;" horiz-adv-x="1214" d="M180 0v1475h903v-109h-780v-551h713v-110h-713v-599h799v-106h-922zM410 1720l47 95l342 -193l-41 -72z" />
<glyph unicode="&#xc9;" horiz-adv-x="1214" d="M180 0v1475h903v-109h-780v-551h713v-110h-713v-599h799v-106h-922zM473 1622l338 195l49 -97l-350 -170z" />
<glyph unicode="&#xca;" horiz-adv-x="1214" d="M180 0v1475h903v-109h-780v-551h713v-110h-713v-599h799v-106h-922zM416 1599l180 179h90l178 -179l-49 -49l-174 138l-172 -140z" />
<glyph unicode="&#xcb;" horiz-adv-x="1214" d="M180 0v1475h903v-109h-780v-551h713v-110h-713v-599h799v-106h-922zM367 1677q0 34 25 59t63 25q37 0 61.5 -24.5t24.5 -59.5q0 -34 -25 -58t-61 -24q-38 0 -63 24t-25 58zM731 1677q0 34 25 59t63 25q37 0 61.5 -24.5t24.5 -59.5q0 -34 -25 -58t-61 -24q-38 0 -63 24 t-25 58z" />
<glyph unicode="&#xcc;" horiz-adv-x="483" d="M49 1720l47 95l342 -193l-41 -72zM180 0v1475h123v-1475h-123z" />
<glyph unicode="&#xcd;" horiz-adv-x="483" d="M49 1622l338 195l49 -97l-350 -170zM180 0v1475h123v-1475h-123z" />
<glyph unicode="&#xce;" horiz-adv-x="483" d="M18 1599l181 179h90l178 -179l-49 -49l-174 138l-172 -140zM180 0v1475h123v-1475h-123z" />
<glyph unicode="&#xcf;" horiz-adv-x="483" d="M-20 1677q0 34 25 59t63 25q37 0 61.5 -24.5t24.5 -59.5q0 -34 -25 -58t-61 -24q-38 0 -63 24t-25 58zM180 0v1475h123v-1475h-123zM344 1677q0 34 25 59t63 25q37 0 61.5 -24.5t24.5 -59.5q0 -34 -25 -58t-61 -24q-38 0 -63 24t-25 58z" />
<glyph unicode="&#xd0;" horiz-adv-x="1439" d="M27 696v105h178v674h391q356 0 538.5 -180t182.5 -560q0 -386 -184 -560.5t-555 -174.5h-373v696h-178zM328 113h278q303 0 442.5 156.5t139.5 465.5t-140 468t-442 159h-278v-561h413v-105h-413v-583z" />
<glyph unicode="&#xd1;" horiz-adv-x="1429" d="M180 0v1475h119l827 -1260v1260h123v-1475h-114l-832 1262v-1262h-123zM434 1630q55 135 158 135q45 0 126.5 -35.5t121.5 -35.5q31 0 50 14.5t38 56.5l67 -28q-40 -131 -147 -131q-53 0 -142 34.5t-116 34.5t-43 -14.5t-43 -61.5z" />
<glyph unicode="&#xd2;" horiz-adv-x="1550" d="M123 758q0 182 50 324.5t139.5 233.5t210 138t265.5 47q137 0 252 -47t202 -137.5t136 -234t49 -324.5q0 -162 -32.5 -293t-91 -221.5t-140.5 -151.5t-179 -89t-210 -28q-114 0 -211 28.5t-179 90t-139.5 152.5t-89.5 221t-32 291zM254 758q0 -333 142 -500.5t388 -167.5 q238 0 375 166t137 502q0 302 -140.5 465t-375.5 163q-242 0 -384 -163.5t-142 -464.5zM582 1720l47 95l342 -193l-41 -72z" />
<glyph unicode="&#xd3;" horiz-adv-x="1550" d="M123 758q0 182 50 324.5t139.5 233.5t210 138t265.5 47q137 0 252 -47t202 -137.5t136 -234t49 -324.5q0 -162 -32.5 -293t-91 -221.5t-140.5 -151.5t-179 -89t-210 -28q-114 0 -211 28.5t-179 90t-139.5 152.5t-89.5 221t-32 291zM254 758q0 -333 142 -500.5t388 -167.5 q238 0 375 166t137 502q0 302 -140.5 465t-375.5 163q-242 0 -384 -163.5t-142 -464.5zM582 1622l338 195l49 -97l-351 -170z" />
<glyph unicode="&#xd4;" horiz-adv-x="1550" d="M123 758q0 182 50 324.5t139.5 233.5t210 138t265.5 47q137 0 252 -47t202 -137.5t136 -234t49 -324.5q0 -162 -32.5 -293t-91 -221.5t-140.5 -151.5t-179 -89t-210 -28q-114 0 -211 28.5t-179 90t-139.5 152.5t-89.5 221t-32 291zM254 758q0 -333 142 -500.5t388 -167.5 q238 0 375 166t137 502q0 302 -140.5 465t-375.5 163q-242 0 -384 -163.5t-142 -464.5zM553 1599l180 179h90l178 -179l-49 -49l-174 138l-172 -140z" />
<glyph unicode="&#xd5;" horiz-adv-x="1550" d="M123 758q0 182 50 324.5t139.5 233.5t210 138t265.5 47q137 0 252 -47t202 -137.5t136 -234t49 -324.5q0 -162 -32.5 -293t-91 -221.5t-140.5 -151.5t-179 -89t-210 -28q-114 0 -211 28.5t-179 90t-139.5 152.5t-89.5 221t-32 291zM254 758q0 -333 142 -500.5t388 -167.5 q238 0 375 166t137 502q0 302 -140.5 465t-375.5 163q-242 0 -384 -163.5t-142 -464.5zM498 1630q55 135 157 135q45 0 126.5 -35.5t121.5 -35.5q31 0 50 14.5t38 56.5l68 -28q-40 -131 -148 -131q-53 0 -142 34.5t-116 34.5t-43 -14.5t-43 -61.5z" />
<glyph unicode="&#xd6;" horiz-adv-x="1550" d="M123 758q0 182 50 324.5t139.5 233.5t210 138t265.5 47q137 0 252 -47t202 -137.5t136 -234t49 -324.5q0 -162 -32.5 -293t-91 -221.5t-140.5 -151.5t-179 -89t-210 -28q-114 0 -211 28.5t-179 90t-139.5 152.5t-89.5 221t-32 291zM254 758q0 -333 142 -500.5t388 -167.5 q238 0 375 166t137 502q0 302 -140.5 465t-375.5 163q-242 0 -384 -163.5t-142 -464.5zM512 1677q0 34 25 59t63 25q37 0 61.5 -24.5t24.5 -59.5q0 -34 -25 -58t-61 -24q-38 0 -63 24t-25 58zM877 1677q0 34 25 59t63 25q37 0 61.5 -24.5t24.5 -59.5q0 -34 -25 -58t-61 -24 q-38 0 -63 24t-25 58z" />
<glyph unicode="&#xd7;" horiz-adv-x="1228" d="M199 256l346 342l-346 342l69 74l344 -344l344 344l72 -76l-344 -342l344 -342l-70 -74l-344 344l-344 -344z" />
<glyph unicode="&#xd8;" horiz-adv-x="1550" d="M123 758q0 182 50 324.5t139.5 233.5t210 138t265.5 47q65 0 144 -14l31 104h114l-39 -135q180 -72 284.5 -249.5t104.5 -448.5q0 -162 -32.5 -293t-91 -221.5t-140.5 -151.5t-179 -89t-210 -28q-61 0 -149 15l-35 -123h-113l43 151q-187 70 -292 255t-105 485zM254 758 q0 -245 78.5 -401.5t220.5 -221.5l348 1239q-59 12 -121 12q-242 0 -384 -163.5t-142 -464.5zM655 102q61 -12 129 -12q238 0 375 166t137 502q0 219 -76.5 366.5t-213.5 212.5z" />
<glyph unicode="&#xd9;" horiz-adv-x="1406" d="M170 543v932h123v-912q0 -238 108.5 -357.5t309.5 -119.5q217 0 310 118.5t93 358.5v912h123v-932q0 -282 -133.5 -425t-398.5 -143q-121 0 -218 34.5t-168.5 102.5t-110 177.5t-38.5 253.5zM510 1720l47 95l342 -193l-41 -72z" />
<glyph unicode="&#xda;" horiz-adv-x="1406" d="M170 543v932h123v-912q0 -238 108.5 -357.5t309.5 -119.5q217 0 310 118.5t93 358.5v912h123v-932q0 -282 -133.5 -425t-398.5 -143q-121 0 -218 34.5t-168.5 102.5t-110 177.5t-38.5 253.5zM547 1622l338 195l49 -97l-350 -170z" />
<glyph unicode="&#xdb;" horiz-adv-x="1406" d="M170 543v932h123v-912q0 -238 108.5 -357.5t309.5 -119.5q217 0 310 118.5t93 358.5v912h123v-932q0 -282 -133.5 -425t-398.5 -143q-121 0 -218 34.5t-168.5 102.5t-110 177.5t-38.5 253.5zM481 1599l181 179h90l178 -179l-49 -49l-174 138l-172 -140z" />
<glyph unicode="&#xdc;" horiz-adv-x="1406" d="M170 543v932h123v-912q0 -238 108.5 -357.5t309.5 -119.5q217 0 310 118.5t93 358.5v912h123v-932q0 -282 -133.5 -425t-398.5 -143q-121 0 -218 34.5t-168.5 102.5t-110 177.5t-38.5 253.5zM440 1677q0 34 25 59t63 25q37 0 61.5 -24.5t24.5 -59.5q0 -34 -25 -58 t-61 -24q-38 0 -63 24t-25 58zM805 1677q0 34 25 59t63 25q37 0 61.5 -24.5t24.5 -59.5q0 -34 -25 -58t-61 -24q-38 0 -63 24t-25 58z" />
<glyph unicode="&#xdd;" horiz-adv-x="1146" d="M41 1475h139l393 -715l394 715h139l-473 -840v-635h-125v635zM430 1622l338 195l49 -97l-350 -170z" />
<glyph unicode="&#xde;" horiz-adv-x="1206" d="M162 0v1475h123v-252h321q104 0 188.5 -23t152.5 -72t105.5 -135.5t37.5 -204.5q0 -213 -137 -323.5t-371 -110.5h-297v-354h-123zM285 457h284q400 0 400 334q0 163 -88.5 241t-280.5 78h-315v-653z" />
<glyph unicode="&#xdf;" horiz-adv-x="1095" d="M63 973v76l121 20v27q0 189 102.5 284t270.5 95q184 0 277.5 -91.5t93.5 -253.5q0 -136 -86 -232.5t-234 -121.5q400 -44 400 -401q0 -186 -98 -293t-271 -107q-147 0 -223 58l41 88q87 -45 176 -45q111 0 180.5 75.5t69.5 225.5q0 84 -27 145.5t-81 100.5t-124 62 t-166 36v102q143 15 231.5 91t88.5 216q0 117 -64.5 179.5t-191.5 62.5q-250 0 -250 -291v-1081h-115v973h-121z" />
<glyph unicode="&#xe0;" horiz-adv-x="1030" d="M94 281q0 48 11.5 91t45.5 88.5t87.5 78.5t145 54t210.5 21q73 0 178 -10v117q0 135 -68.5 204.5t-199.5 69.5q-153 0 -297 -131l-60 76q71 74 165.5 116t199.5 42q175 0 276 -90t101 -277v-731h-101l-8 215q-118 -240 -370 -240q-145 0 -230.5 81t-85.5 225zM213 268 q0 -91 58.5 -144.5t164.5 -53.5q92 0 171.5 60.5t122 147.5t42.5 171v57q-90 12 -166 12q-208 0 -300.5 -63.5t-92.5 -186.5zM307 1450l72 78l280 -266l-53 -62z" />
<glyph unicode="&#xe1;" horiz-adv-x="1030" d="M94 281q0 48 11.5 91t45.5 88.5t87.5 78.5t145 54t210.5 21q73 0 178 -10v117q0 135 -68.5 204.5t-199.5 69.5q-153 0 -297 -131l-60 76q71 74 165.5 116t199.5 42q175 0 276 -90t101 -277v-731h-101l-8 215q-118 -240 -370 -240q-145 0 -230.5 81t-85.5 225zM213 268 q0 -91 58.5 -144.5t164.5 -53.5q92 0 171.5 60.5t122 147.5t42.5 171v57q-90 12 -166 12q-208 0 -300.5 -63.5t-92.5 -186.5zM350 1262l283 266l69 -80l-299 -248z" />
<glyph unicode="&#xe2;" horiz-adv-x="1030" d="M94 281q0 48 11.5 91t45.5 88.5t87.5 78.5t145 54t210.5 21q73 0 178 -10v117q0 135 -68.5 204.5t-199.5 69.5q-153 0 -297 -131l-60 76q71 74 165.5 116t199.5 42q175 0 276 -90t101 -277v-731h-101l-8 215q-118 -240 -370 -240q-145 0 -230.5 81t-85.5 225zM213 268 q0 -91 58.5 -144.5t164.5 -53.5q92 0 171.5 60.5t122 147.5t42.5 171v57q-90 12 -166 12q-208 0 -300.5 -63.5t-92.5 -186.5zM244 1237l215 305h88l217 -305l-62 -43l-198 248l-199 -246z" />
<glyph unicode="&#xe3;" horiz-adv-x="1030" d="M94 281q0 48 11.5 91t45.5 88.5t87.5 78.5t145 54t210.5 21q73 0 178 -10v117q0 135 -68.5 204.5t-199.5 69.5q-153 0 -297 -131l-60 76q71 74 165.5 116t199.5 42q175 0 276 -90t101 -277v-731h-101l-8 215q-118 -240 -370 -240q-145 0 -230.5 81t-85.5 225zM213 268 q0 -91 58.5 -144.5t164.5 -53.5q92 0 171.5 60.5t122 147.5t42.5 171v57q-90 12 -166 12q-208 0 -300.5 -63.5t-92.5 -186.5zM221 1278q55 135 158 135q45 0 126.5 -36t121.5 -36q31 0 49.5 14.5t38.5 57.5l67 -29q-40 -131 -147 -131q-53 0 -142 35t-116 35t-43 -14.5 t-43 -61.5z" />
<glyph unicode="&#xe4;" horiz-adv-x="1030" d="M94 281q0 48 11.5 91t45.5 88.5t87.5 78.5t145 54t210.5 21q73 0 178 -10v117q0 135 -68.5 204.5t-199.5 69.5q-153 0 -297 -131l-60 76q71 74 165.5 116t199.5 42q175 0 276 -90t101 -277v-731h-101l-8 215q-118 -240 -370 -240q-145 0 -230.5 81t-85.5 225zM213 268 q0 -91 58.5 -144.5t164.5 -53.5q92 0 171.5 60.5t122 147.5t42.5 171v57q-90 12 -166 12q-208 0 -300.5 -63.5t-92.5 -186.5zM238 1339q0 34 25 59t63 25q37 0 61.5 -24.5t24.5 -59.5q0 -34 -25 -58t-61 -24q-38 0 -63 24t-25 58zM602 1339q0 34 25 59t63 25 q37 0 61.5 -24.5t24.5 -59.5q0 -34 -25 -58t-61 -24q-38 0 -63 24t-25 58z" />
<glyph unicode="&#xe5;" horiz-adv-x="1030" d="M94 281q0 48 11.5 91t45.5 88.5t87.5 78.5t145 54t210.5 21q73 0 178 -10v117q0 135 -68.5 204.5t-199.5 69.5q-153 0 -297 -131l-60 76q71 74 165.5 116t199.5 42q175 0 276 -90t101 -277v-731h-101l-8 215q-118 -240 -370 -240q-145 0 -230.5 81t-85.5 225zM213 268 q0 -91 58.5 -144.5t164.5 -53.5q92 0 171.5 60.5t122 147.5t42.5 171v57q-90 12 -166 12q-208 0 -300.5 -63.5t-92.5 -186.5zM328 1354q0 78 53 129t131 51q79 0 131.5 -48.5t52.5 -125.5q0 -81 -51.5 -129.5t-132.5 -48.5t-132.5 47t-51.5 125zM412 1354q0 -47 27.5 -74 t72.5 -27q46 0 74 30t28 77q0 46 -27.5 72t-74.5 26q-45 0 -72.5 -29t-27.5 -75z" />
<glyph unicode="&#xe6;" horiz-adv-x="1740" d="M92 285q0 47 11.5 89.5t45 88.5t86.5 79t143.5 54.5t207.5 21.5q85 0 184 -12v117q0 137 -68.5 206.5t-193.5 69.5q-182 0 -318 -129l-55 74q79 71 176 112.5t199 41.5q127 0 219 -53t131 -158q127 211 381 211q406 0 406 -516v-72h-756q2 -200 92.5 -314t271.5 -114 q92 0 167 28.5t153 92.5l53 -82q-164 -146 -383 -146q-305 0 -414 248q-41 -85 -110 -142.5t-142 -81.5t-151 -24q-157 0 -246.5 81t-89.5 229zM211 276q0 -91 63.5 -147.5t161.5 -56.5q140 0 238 100.5t98 247.5v96q-68 12 -141 12q-229 0 -324.5 -64t-95.5 -188zM891 612 h639q-2 88 -17 155t-47.5 119.5t-89 80.5t-135.5 28q-80 0 -143.5 -29t-101 -71.5t-62 -97.5t-33.5 -100t-10 -85z" />
<glyph unicode="&#xe7;" horiz-adv-x="1046" d="M102 543q0 132 36.5 238.5t101 175t149.5 105t184 36.5q178 0 282.5 -100.5t115.5 -278.5h-109q-18 136 -93.5 204t-193.5 68q-162 0 -256 -120t-94 -326q0 -125 39.5 -228.5t123 -169t198.5 -65.5q96 0 163.5 27t159.5 96l52 -82q-157 -139 -361 -148l-18 -94 q42 -1 76 -12t60.5 -42.5t26.5 -80.5q0 -83 -51.5 -122.5t-134.5 -39.5q-89 0 -162 35l23 70q81 -29 135 -29q102 0 102 80q0 45 -35.5 60.5t-111.5 15.5h-18l34 161q-197 17 -310.5 170t-113.5 396z" />
<glyph unicode="&#xe8;" horiz-adv-x="1077" d="M102 532q0 257 129 411.5t347 154.5q405 0 405 -516v-72h-756q2 -200 93 -314t272 -114q92 0 166.5 28t152.5 93l54 -82q-164 -146 -383 -146q-225 0 -352.5 139.5t-127.5 417.5zM227 612h639q-2 88 -17 154.5t-47 119.5t-88.5 81t-135.5 28q-67 0 -123 -20t-92.5 -53.5 t-64 -73.5t-42.5 -85t-21.5 -82t-7.5 -69zM360 1450l72 78l281 -266l-54 -62z" />
<glyph unicode="&#xe9;" horiz-adv-x="1077" d="M102 532q0 257 129 411.5t347 154.5q405 0 405 -516v-72h-756q2 -200 93 -314t272 -114q92 0 166.5 28t152.5 93l54 -82q-164 -146 -383 -146q-225 0 -352.5 139.5t-127.5 417.5zM227 612h639q-2 88 -17 154.5t-47 119.5t-88.5 81t-135.5 28q-67 0 -123 -20t-92.5 -53.5 t-64 -73.5t-42.5 -85t-21.5 -82t-7.5 -69zM406 1262l282 266l70 -80l-299 -248z" />
<glyph unicode="&#xea;" horiz-adv-x="1077" d="M102 532q0 257 129 411.5t347 154.5q405 0 405 -516v-72h-756q2 -200 93 -314t272 -114q92 0 166.5 28t152.5 93l54 -82q-164 -146 -383 -146q-225 0 -352.5 139.5t-127.5 417.5zM227 612h639q-2 88 -17 154.5t-47 119.5t-88.5 81t-135.5 28q-67 0 -123 -20t-92.5 -53.5 t-64 -73.5t-42.5 -85t-21.5 -82t-7.5 -69zM299 1237l215 305h88l217 -305l-61 -43l-199 248l-199 -246z" />
<glyph unicode="&#xeb;" horiz-adv-x="1077" d="M102 532q0 257 129 411.5t347 154.5q405 0 405 -516v-72h-756q2 -200 93 -314t272 -114q92 0 166.5 28t152.5 93l54 -82q-164 -146 -383 -146q-225 0 -352.5 139.5t-127.5 417.5zM227 612h639q-2 88 -17 154.5t-47 119.5t-88.5 81t-135.5 28q-67 0 -123 -20t-92.5 -53.5 t-64 -73.5t-42.5 -85t-21.5 -82t-7.5 -69zM293 1339q0 34 25 59t63 25q37 0 61.5 -24.5t24.5 -59.5q0 -34 -25 -58t-61 -24q-38 0 -63 24t-25 58zM657 1339q0 34 25 59t63 25q37 0 61.5 -24.5t24.5 -59.5q0 -34 -25 -58t-61 -24q-38 0 -63 24t-25 58z" />
<glyph unicode="&#xec;" horiz-adv-x="444" d="M33 1450l71 78l281 -266l-53 -62zM164 0v1071h117v-1071h-117z" />
<glyph unicode="&#xed;" horiz-adv-x="444" d="M66 1262l282 266l70 -80l-299 -248zM164 0v1071h117v-1071h-117z" />
<glyph unicode="&#xee;" horiz-adv-x="444" d="M-35 1237l215 305h88l217 -305l-61 -43l-199 248l-198 -246zM164 0v1071h117v-1071h-117z" />
<glyph unicode="&#xef;" horiz-adv-x="444" d="M-41 1339q0 34 25 59t63 25q37 0 61.5 -24.5t24.5 -59.5q0 -34 -25 -58t-61 -24q-38 0 -63 24t-25 58zM164 0v1071h117v-1071h-117zM324 1339q0 34 25 59t63 25q37 0 61.5 -24.5t24.5 -59.5q0 -34 -25 -58t-61 -24q-38 0 -63 24t-25 58z" />
<glyph unicode="&#xf0;" horiz-adv-x="1073" d="M102 428q0 128 44 231t137.5 167.5t222.5 64.5q208 0 350 -162q-29 289 -190 459l-191 -125l-55 78l172 114q-119 89 -285 131l27 91q208 -45 350 -160l193 129l55 -82l-176 -115q213 -232 213 -653q0 -289 -114 -455t-331 -166q-198 0 -310 122.5t-112 330.5zM225 430 q0 -171 83.5 -259.5t213.5 -88.5q155 0 245 129.5t89 394.5q-36 38 -61.5 61.5t-69 55.5t-94 48.5t-105.5 16.5q-61 0 -114 -21.5t-95.5 -63.5t-67 -112t-24.5 -161z" />
<glyph unicode="&#xf1;" horiz-adv-x="1095" d="M152 0v1073h110v-166q158 191 361 191q76 0 133.5 -20.5t94 -55.5t59.5 -88t32.5 -112.5t9.5 -133.5v-688h-116v674q0 161 -56 238t-182 77q-169 0 -330 -201v-788h-116zM274 1278q55 135 158 135q45 0 126.5 -36t121.5 -36q31 0 49.5 14.5t38.5 57.5l68 -29 q-40 -131 -148 -131q-53 0 -142 35t-116 35t-43 -14.5t-43 -61.5z" />
<glyph unicode="&#xf2;" horiz-adv-x="1157" d="M102 532q0 262 128 414t345 152q219 0 349.5 -149.5t130.5 -413.5q0 -259 -131.5 -409.5t-352.5 -150.5q-222 0 -345.5 148t-123.5 409zM225 535q0 -221 96.5 -336t253.5 -115q158 0 257.5 115t99.5 336q0 223 -99.5 338.5t-257.5 115.5q-156 0 -253 -116.5t-97 -337.5z M399 1450l72 78l281 -266l-54 -62z" />
<glyph unicode="&#xf3;" horiz-adv-x="1157" d="M102 532q0 262 128 414t345 152q219 0 349.5 -149.5t130.5 -413.5q0 -259 -131.5 -409.5t-352.5 -150.5q-222 0 -345.5 148t-123.5 409zM225 535q0 -221 96.5 -336t253.5 -115q158 0 257.5 115t99.5 336q0 223 -99.5 338.5t-257.5 115.5q-156 0 -253 -116.5t-97 -337.5z M416 1262l282 266l70 -80l-299 -248z" />
<glyph unicode="&#xf4;" horiz-adv-x="1157" d="M102 532q0 262 128 414t345 152q219 0 349.5 -149.5t130.5 -413.5q0 -259 -131.5 -409.5t-352.5 -150.5q-222 0 -345.5 148t-123.5 409zM225 535q0 -221 96.5 -336t253.5 -115q158 0 257.5 115t99.5 336q0 223 -99.5 338.5t-257.5 115.5q-156 0 -253 -116.5t-97 -337.5z M311 1237l215 305h88l217 -305l-61 -43l-199 248l-198 -246z" />
<glyph unicode="&#xf5;" horiz-adv-x="1157" d="M102 532q0 262 128 414t345 152q219 0 349.5 -149.5t130.5 -413.5q0 -259 -131.5 -409.5t-352.5 -150.5q-222 0 -345.5 148t-123.5 409zM225 535q0 -221 96.5 -336t253.5 -115q158 0 257.5 115t99.5 336q0 223 -99.5 338.5t-257.5 115.5q-156 0 -253 -116.5t-97 -337.5z M291 1278q55 135 158 135q45 0 126 -36t121 -36q31 0 49.5 14.5t38.5 57.5l68 -29q-40 -131 -147 -131q-53 0 -142.5 35t-116.5 35t-43 -14.5t-43 -61.5z" />
<glyph unicode="&#xf6;" horiz-adv-x="1157" d="M102 532q0 262 128 414t345 152q219 0 349.5 -149.5t130.5 -413.5q0 -259 -131.5 -409.5t-352.5 -150.5q-222 0 -345.5 148t-123.5 409zM225 535q0 -221 96.5 -336t253.5 -115q158 0 257.5 115t99.5 336q0 223 -99.5 338.5t-257.5 115.5q-156 0 -253 -116.5t-97 -337.5z M305 1339q0 34 25 59t63 25q37 0 61.5 -24.5t24.5 -59.5q0 -34 -25 -58t-61 -24q-38 0 -63 24t-25 58zM670 1339q0 34 25 59t63 25q37 0 61.5 -24.5t24.5 -59.5q0 -34 -25 -58t-61 -24q-38 0 -63 24t-25 58z" />
<glyph unicode="&#xf7;" horiz-adv-x="1228" d="M82 563v96h1065v-96h-1065zM528 266q0 34 25 60t59 26q35 0 59.5 -25.5t24.5 -60.5t-24.5 -60.5t-59.5 -25.5q-32 0 -58 27t-26 59zM528 963q0 35 25 61.5t59 26.5q35 0 59.5 -25.5t24.5 -62.5q0 -34 -24.5 -59t-59.5 -25q-32 0 -58 26t-26 58z" />
<glyph unicode="&#xf8;" horiz-adv-x="1157" d="M102 532q0 262 128 414t345 152q47 0 107 -11l39 125h117l-50 -161q126 -59 196.5 -192t70.5 -324q0 -259 -131.5 -409.5t-352.5 -150.5q-45 0 -106 11l-41 -133h-113l49 165q-125 59 -191.5 191.5t-66.5 322.5zM225 535q0 -292 170 -402l256 848q-50 8 -76 8 q-156 0 -253 -116.5t-97 -337.5zM498 92q33 -8 77 -8q158 0 257.5 115t99.5 336q0 149 -47 251t-129 154z" />
<glyph unicode="&#xf9;" horiz-adv-x="1091" d="M141 360v713h119v-690q0 -152 51 -225.5t178 -73.5q173 0 334 199v790h117v-1073h-111v164q-63 -78 -154 -133.5t-206 -55.5q-78 0 -137 20.5t-94.5 55t-58 85t-30.5 104.5t-8 120zM362 1450l72 78l281 -266l-53 -62z" />
<glyph unicode="&#xfa;" horiz-adv-x="1091" d="M141 360v713h119v-690q0 -152 51 -225.5t178 -73.5q173 0 334 199v790h117v-1073h-111v164q-63 -78 -154 -133.5t-206 -55.5q-78 0 -137 20.5t-94.5 55t-58 85t-30.5 104.5t-8 120zM403 1262l283 266l70 -80l-299 -248z" />
<glyph unicode="&#xfb;" horiz-adv-x="1091" d="M141 360v713h119v-690q0 -152 51 -225.5t178 -73.5q173 0 334 199v790h117v-1073h-111v164q-63 -78 -154 -133.5t-206 -55.5q-78 0 -137 20.5t-94.5 55t-58 85t-30.5 104.5t-8 120zM287 1237l215 305h88l217 -305l-62 -43l-198 248l-199 -246z" />
<glyph unicode="&#xfc;" horiz-adv-x="1091" d="M141 360v713h119v-690q0 -152 51 -225.5t178 -73.5q173 0 334 199v790h117v-1073h-111v164q-63 -78 -154 -133.5t-206 -55.5q-78 0 -137 20.5t-94.5 55t-58 85t-30.5 104.5t-8 120zM281 1339q0 34 25 59t63 25q37 0 61.5 -24.5t24.5 -59.5q0 -34 -25 -58t-61 -24 q-38 0 -63 24t-25 58zM645 1339q0 34 25 59t63 25q37 0 61.5 -24.5t24.5 -59.5q0 -34 -25 -58t-61 -24q-38 0 -63 24t-25 58z" />
<glyph unicode="&#xfd;" horiz-adv-x="940" d="M29 1073h129l313 -915l307 915h121l-389 -1143q-20 -58 -32 -91.5t-30 -76t-33 -65t-36.5 -47.5t-44.5 -36.5t-53.5 -19.5t-67.5 -8q-94 0 -176 23l18 98q61 -18 142 -18q65 0 103.5 43.5t78.5 169.5l33 100zM356 1262l283 266l70 -80l-299 -248z" />
<glyph unicode="&#xfe;" horiz-adv-x="1171" d="M152 -410v1885h114v-576q155 199 373 199q211 0 316.5 -149.5t105.5 -411.5q0 -259 -112.5 -410.5t-332.5 -151.5q-67 0 -128 18t-104 46t-71 54t-45 50v-553h-116zM268 264q52 -72 136 -128t194 -56q160 0 250 116.5t90 335.5q0 223 -84.5 342t-243.5 119 q-108 0 -189 -55t-153 -156v-518z" />
<glyph unicode="&#xff;" horiz-adv-x="940" d="M29 1073h129l313 -915l307 915h121l-389 -1143q-20 -58 -32 -91.5t-30 -76t-33 -65t-36.5 -47.5t-44.5 -36.5t-53.5 -19.5t-67.5 -8q-94 0 -176 23l18 98q61 -18 142 -18q65 0 103.5 43.5t78.5 169.5l33 100zM213 1339q0 34 25 59t63 25q37 0 61.5 -24.5t24.5 -59.5 q0 -34 -25 -58t-61 -24q-38 0 -63 24t-25 58zM578 1339q0 34 25 59t63 25q37 0 61.5 -24.5t24.5 -59.5q0 -34 -25 -58t-61 -24q-38 0 -63 24t-25 58z" />
<glyph unicode="&#x152;" horiz-adv-x="2324" d="M123 758q0 183 49.5 326.5t137.5 233t203.5 135.5t252.5 46q183 0 325 -90.5t205 -257.5v324h897v-111h-780v-549h711v-106h-711v-598h799v-111h-916v338q-65 -178 -212 -270.5t-336 -92.5q-108 0 -201.5 29t-172 90.5t-134 152.5t-86.5 221t-31 290zM254 758 q0 -332 137 -499t371 -167q88 0 164 21t144 70.5t116 124.5t76 189t28 259q0 132 -28.5 238.5t-76.5 178t-114.5 119.5t-140.5 69t-156 21q-239 0 -379.5 -162t-140.5 -462z" />
<glyph unicode="&#x153;" horiz-adv-x="1896" d="M102 532q0 262 128 414t345 152q154 0 260 -76.5t156 -222.5q47 142 150.5 220.5t255.5 78.5q405 0 405 -516v-72h-755q2 -200 92.5 -314t271.5 -114q92 0 167 28.5t153 92.5l53 -82q-164 -146 -383 -146q-324 0 -414 287q-52 -138 -158 -212.5t-258 -74.5 q-222 0 -345.5 148t-123.5 409zM225 535q0 -221 96.5 -336t253.5 -115q158 0 257.5 115t99.5 336q0 223 -99.5 338.5t-257.5 115.5q-156 0 -253 -116.5t-97 -337.5zM1047 612h639q-2 88 -17 155t-47.5 119.5t-89 80.5t-135.5 28q-80 0 -143.5 -29t-101 -71.5t-62 -97.5 t-33.5 -100t-10 -85z" />
<glyph unicode="&#x178;" horiz-adv-x="1146" d="M41 1475h139l393 -715l394 715h139l-473 -840v-635h-125v635zM309 1677q0 34 25 59t63 25q37 0 61.5 -24.5t24.5 -59.5q0 -34 -25 -58t-61 -24q-38 0 -63 24t-25 58zM674 1677q0 34 25 59t63 25q37 0 61.5 -24.5t24.5 -59.5q0 -34 -25 -58t-61 -24q-38 0 -63 24t-25 58z " />
<glyph unicode="&#x2c6;" d="M254 1237l215 305h88l217 -305l-61 -43l-199 248l-199 -246z" />
<glyph unicode="&#x2dc;" d="M231 1278q55 135 158 135q45 0 126.5 -36t121.5 -36q31 0 49.5 14.5t38.5 57.5l68 -29q-40 -131 -148 -131q-53 0 -142 35t-116 35t-43 -14.5t-43 -61.5z" />
<glyph unicode="&#x2000;" horiz-adv-x="908" />
<glyph unicode="&#x2001;" horiz-adv-x="1817" />
<glyph unicode="&#x2002;" horiz-adv-x="908" />
<glyph unicode="&#x2003;" horiz-adv-x="1817" />
<glyph unicode="&#x2004;" horiz-adv-x="605" />
<glyph unicode="&#x2005;" horiz-adv-x="454" />
<glyph unicode="&#x2006;" horiz-adv-x="302" />
<glyph unicode="&#x2007;" horiz-adv-x="302" />
<glyph unicode="&#x2008;" horiz-adv-x="227" />
<glyph unicode="&#x2009;" horiz-adv-x="363" />
<glyph unicode="&#x200a;" horiz-adv-x="100" />
<glyph unicode="&#x2010;" horiz-adv-x="692" d="M74 516v105h544v-105h-544z" />
<glyph unicode="&#x2011;" horiz-adv-x="692" d="M74 516v105h544v-105h-544z" />
<glyph unicode="&#x2012;" horiz-adv-x="692" d="M74 516v105h544v-105h-544z" />
<glyph unicode="&#x2013;" d="M0 494v94h1024v-94h-1024z" />
<glyph unicode="&#x2014;" horiz-adv-x="2048" d="M0 494v94h2048v-94h-2048z" />
<glyph unicode="&#x2018;" horiz-adv-x="417" d="M104 1268q0 178 166 268l31 -47q-126 -75 -129 -201q29 29 66 29q39 0 61.5 -26.5t22.5 -61.5q0 -43 -29 -71t-76 -28q-59 0 -86 41t-27 97z" />
<glyph unicode="&#x2019;" horiz-adv-x="421" d="M92 1376q0 43 29 71t76 28q59 0 85.5 -41t26.5 -97q0 -178 -166 -268l-30 47q126 75 129 201q-29 -29 -66 -29q-39 0 -61.5 26.5t-22.5 61.5z" />
<glyph unicode="&#x201a;" horiz-adv-x="419" d="M117 45q0 43 28.5 70.5t75.5 27.5q59 0 86 -40.5t27 -96.5q0 -178 -166 -268l-31 47q126 75 129 201q-29 -29 -65 -29q-39 0 -61.5 26.5t-22.5 61.5z" />
<glyph unicode="&#x201c;" horiz-adv-x="714" d="M104 1268q0 178 166 268l31 -47q-126 -75 -129 -201q29 29 66 29q39 0 61.5 -26.5t22.5 -61.5q0 -43 -29 -71t-76 -28q-59 0 -86 41t-27 97zM401 1268q0 178 166 268l31 -47q-126 -75 -129 -201q29 29 66 29q39 0 61 -26.5t22 -61.5q0 -43 -28.5 -71t-75.5 -28 q-59 0 -86 41t-27 97z" />
<glyph unicode="&#x201d;" horiz-adv-x="718" d="M92 1376q0 43 29 71t76 28q59 0 85.5 -41t26.5 -97q0 -178 -166 -268l-30 47q126 75 129 201q-29 -29 -66 -29q-39 0 -61.5 26.5t-22.5 61.5zM389 1376q0 43 29 71t76 28q59 0 85.5 -41t26.5 -97q0 -178 -166 -268l-30 47q126 75 129 201q-29 -29 -66 -29 q-39 0 -61.5 26.5t-22.5 61.5z" />
<glyph unicode="&#x201e;" horiz-adv-x="720" d="M117 45q0 43 28.5 70.5t75.5 27.5q59 0 86 -40.5t27 -96.5q0 -178 -166 -268l-31 47q126 75 129 201q-29 -29 -65 -29q-39 0 -61.5 26.5t-22.5 61.5zM418 45q0 43 28.5 70.5t75.5 27.5q59 0 86 -40.5t27 -96.5q0 -178 -166 -268l-31 47q126 75 129 201q-29 -29 -65 -29 q-39 0 -61.5 26.5t-22.5 61.5z" />
<glyph unicode="&#x2022;" d="M295 639q0 97 64.5 160t158.5 63q92 0 157.5 -62t65.5 -161q0 -100 -64.5 -162.5t-160.5 -62.5q-93 0 -157 64t-64 161z" />
<glyph unicode="&#x2026;" horiz-adv-x="1601" d="M178 72q0 46 27.5 72t70.5 26q44 0 72.5 -25.5t28.5 -70.5t-28.5 -72t-72.5 -27q-43 0 -70.5 26.5t-27.5 70.5zM707 72q0 46 27.5 72t70.5 26q44 0 72 -25.5t28 -70.5t-28 -72t-72 -27q-43 0 -70.5 26.5t-27.5 70.5zM1237 72q0 46 27.5 72t70.5 26q44 0 72.5 -25.5 t28.5 -70.5t-28.5 -72t-72.5 -27q-43 0 -70.5 26.5t-27.5 70.5z" />
<glyph unicode="&#x202f;" horiz-adv-x="363" />
<glyph unicode="&#x2039;" horiz-adv-x="544" d="M94 516v35l318 299l59 -57l-252 -258l252 -261l-59 -53z" />
<glyph unicode="&#x203a;" horiz-adv-x="544" d="M74 274l252 261l-252 258l59 57l318 -299v-35l-318 -295z" />
<glyph unicode="&#x205f;" horiz-adv-x="454" />
<glyph unicode="&#x20ac;" horiz-adv-x="1230" d="M-39 539l8 92h164q-4 33 -4 100q0 47 2 72h-147l8 92h149q15 114 58.5 216.5t112 184.5t170.5 130.5t223 48.5q136 0 256 -60.5t202 -197.5l-78 -56q-68 105 -168 160t-215 55q-181 0 -297.5 -133t-148.5 -348h713l-8 -92h-715q-2 -23 -2 -68q0 -71 4 -104h698l-8 -92 h-678q41 -211 159.5 -338t287.5 -127q122 0 211.5 45t173.5 127l67 -74q-188 -197 -463 -197q-95 0 -177.5 30.5t-143 83t-108 125.5t-77 154t-45.5 171h-184z" />
<glyph unicode="&#x2122;" horiz-adv-x="1247" d="M57 1403v72h426v-72h-172v-455h-80v455h-174zM549 948l55 527h92l156 -418l160 418h88l61 -527h-78l-45 410l-157 -410h-64l-151 410l-41 -410h-76z" />
<glyph unicode="&#x25fc;" horiz-adv-x="1075" d="M0 0v1075h1075v-1075h-1075z" />
</font>
</defs>
</svg>
